<svg xmlns="http://www.w3.org/2000/svg" viewBox="0 0 128 128" role="img" aria-label="CoBrowser">
  <defs>
    <linearGradient id="g" x1="18" y1="12" x2="110" y2="118" gradientUnits="userSpaceOnUse">
      <stop offset="0" stop-color="#14b8a6"/>
      <stop offset="1" stop-color="#0f766e"/>
    </linearGradient>
  </defs>
  <rect width="128" height="128" rx="30" fill="#062925"/>
  <rect x="18" y="28" width="92" height="72" rx="14" fill="url(#g)"/>
  <rect x="26" y="40" width="76" height="48" rx="8" fill="#ecfeff"/>
  <circle cx="38" cy="34" r="3.5" fill="#ccfbf1"/>
  <circle cx="50" cy="34" r="3.5" fill="#ccfbf1"/>
  <path d="M48 64c0-10 7-18 17-18 6 0 11 2 15 7l-8 7c-2-2-4-3-7-3-4 0-7 3-7 7s3 7 7 7c3 0 5-1 7-3l8 7c-4 5-9 7-15 7-10 0-17-8-17-18Z" fill="#0f766e"/>
  <path d="M42 51c-8 2-14 7-14 13s6 11 14 13" fill="none" stroke="#0f766e" stroke-width="6" stroke-linecap="round"/>
</svg>
